<?xml version="1.0" encoding="UTF-8"?>
<!DOCTYPE svg PUBLIC "-//W3C//DTD SVG 1.1//EN" "http://www.w3.org/Graphics/SVG/1.1/DTD/svg11.dtd">
<svg xmlns="http://www.w3.org/2000/svg" version="1.1" width="2000px" height="603px" style="shape-rendering:geometricPrecision; text-rendering:geometricPrecision; image-rendering:optimizeQuality; fill-rule:evenodd; clip-rule:evenodd" xmlns:xlink="http://www.w3.org/1999/xlink">
<g><path style="opacity:0.983" fill="#0c479c" d="M 202.5,126.5 C 220.854,126.249 239.187,126.582 257.5,127.5C 250.76,177.998 245.593,228.665 242,279.5C 238.936,347.797 237.769,416.131 238.5,484.5C 234.167,484.5 229.833,484.5 225.5,484.5C 224.673,414.458 222.507,344.458 219,274.5C 215.729,224.896 210.229,175.563 202.5,126.5 Z"/></g>
<g><path style="opacity:0.984" fill="#0c479c" d="M 163.5,133.5 C 165.144,133.286 166.644,133.62 168,134.5C 178.78,171.286 188.78,208.286 198,245.5C 207.935,290.979 213.935,336.979 216,383.5C 217.766,417.144 218.599,450.811 218.5,484.5C 213.5,484.5 208.5,484.5 203.5,484.5C 207.614,406.846 194.78,332.179 165,260.5C 148.772,224.21 131.605,188.377 113.5,153C 113.645,152.228 113.978,151.561 114.5,151C 130.335,143.446 146.669,137.613 163.5,133.5 Z"/></g>
<g><path style="opacity:0.985" fill="#0c479c" d="M 294.5,133.5 C 311.829,136.5 328.496,141.666 344.5,149C 346.813,149.641 348.48,150.974 349.5,153C 325.104,198.531 303.604,245.365 285,293.5C 264.292,355.496 255.792,419.163 259.5,484.5C 254.167,484.5 248.833,484.5 243.5,484.5C 243.504,421.594 247.337,358.928 255,296.5C 257.691,278.711 261.024,261.045 265,243.5C 274.528,206.721 284.361,170.054 294.5,133.5 Z"/></g>
<g><path style="opacity:0.984" fill="#0c479c" d="M 78.5,171.5 C 163.871,258.002 203.204,362.335 196.5,484.5C 191.608,483.097 186.608,482.43 181.5,482.5C 183.946,422.624 171.113,366.291 143,313.5C 123.8,280.964 98.9665,253.464 68.5,231C 57.9666,223.903 47.2999,217.07 36.5,210.5C 48.6634,195.33 62.6634,182.33 78.5,171.5 Z"/></g>
<g><path style="opacity:0.983" fill="#0c479c" d="M 383.5,171.5 C 399.983,181.976 414.317,194.976 426.5,210.5C 340.518,259.69 292.685,334.023 283,433.5C 281.865,449.476 281.199,465.476 281,481.5C 276,482.5 271,483.5 266,484.5C 259.557,362.619 298.724,258.285 383.5,171.5 Z"/></g>
<g><path style="opacity:0.993" fill="#0c479c" d="M 1999.5,279.5 C 1999.5,288.5 1999.5,297.5 1999.5,306.5C 1993.64,337.032 1977.64,360.866 1951.5,378C 1910.08,402.743 1866.41,407.41 1820.5,392C 1789.66,380.343 1766.83,359.843 1752,330.5C 1748.89,323.071 1746.56,315.404 1745,307.5C 1738.04,341.13 1719.54,366.296 1689.5,383C 1651.99,402.131 1612.99,405.798 1572.5,394C 1539.43,383.583 1514.93,363.083 1499,332.5C 1491.67,315.52 1489,297.853 1491,279.5C 1476.16,315.35 1461.33,351.184 1446.5,387C 1427.16,387.833 1407.82,387.666 1388.5,386.5C 1376.27,360.378 1363.77,334.378 1351,308.5C 1339.3,334.741 1327.46,360.908 1315.5,387C 1295.16,387.833 1274.83,387.666 1254.5,386.5C 1235.57,341.037 1217.24,295.37 1199.5,249.5C 1158.5,249.5 1117.5,249.5 1076.5,249.5C 1076.5,257.5 1076.5,265.5 1076.5,273.5C 1112.83,273.5 1149.17,273.5 1185.5,273.5C 1185.5,288.5 1185.5,303.5 1185.5,318.5C 1149.17,318.5 1112.83,318.5 1076.5,318.5C 1076.5,326.167 1076.5,333.833 1076.5,341.5C 1117.5,341.5 1158.5,341.5 1199.5,341.5C 1199.5,356.833 1199.5,372.167 1199.5,387.5C 1083.83,387.667 968.166,387.5 852.5,387C 843.667,372.833 834.833,358.667 826,344.5C 819.264,358.633 813.098,372.966 807.5,387.5C 781.825,387.833 756.158,387.5 730.5,386.5C 735.669,375.84 740.502,365.173 745,354.5C 734.609,368.552 721.109,378.385 704.5,384C 689.64,389.366 674.307,392.366 658.5,393C 614.835,393.5 571.168,393.667 527.5,393.5C 527.5,327.167 527.5,260.833 527.5,194.5C 573.501,194.333 619.501,194.5 665.5,195C 696.879,196.277 723.046,208.443 744,231.5C 755.036,245.93 761.369,262.264 763,280.5C 763.744,293.905 763.411,307.239 762,320.5C 780.833,280.833 799.667,241.167 818.5,201.5C 853.829,200.333 889.162,200.167 924.5,201C 952.188,261.544 980.022,322.044 1008,382.5C 1008.5,321.834 1008.67,261.168 1008.5,200.5C 1087.83,200.5 1167.17,200.5 1246.5,200.5C 1261.17,238.331 1276.33,275.997 1292,313.5C 1303.03,292.774 1313.53,271.774 1323.5,250.5C 1316.44,234.053 1309.11,217.72 1301.5,201.5C 1335.16,200.333 1368.83,200.167 1402.5,201C 1394.37,217.429 1386.37,233.929 1378.5,250.5C 1388.47,271.774 1398.97,292.774 1410,313.5C 1425.6,276.207 1441.1,238.874 1456.5,201.5C 1478.83,200.167 1501.17,200.167 1523.5,201.5C 1518.28,213.016 1513.78,224.682 1510,236.5C 1529.59,211.441 1555.09,195.607 1586.5,189C 1636.71,179.005 1680.54,191.172 1718,225.5C 1732.3,240.773 1741.3,258.773 1745,279.5C 1752.01,245.835 1770.51,220.668 1800.5,204C 1849,179.078 1897.33,179.412 1945.5,205C 1974.6,221.916 1992.6,246.749 1999.5,279.5 Z M 1609.5,230.5 C 1640.94,229.76 1661.44,244.426 1671,274.5C 1677.95,303.635 1670.12,327.802 1647.5,347C 1618.52,363.338 1594.02,358.171 1574,331.5C 1559.63,307.563 1558.97,283.23 1572,258.5C 1580.68,243.977 1593.18,234.643 1609.5,230.5 Z M 1863.5,230.5 C 1892.08,229.38 1911.92,242.047 1923,268.5C 1931.52,294.044 1927.52,317.377 1911,338.5C 1891.81,358.357 1869.98,361.857 1845.5,349C 1821.25,330.252 1812.41,305.752 1819,275.5C 1825.39,251.941 1840.23,236.941 1863.5,230.5 Z M 596.5,243.5 C 611.869,243.141 627.203,243.641 642.5,245C 660.683,247.337 675.517,255.503 687,269.5C 698.682,294.274 693.848,315.107 672.5,332C 662.594,337.746 651.927,341.08 640.5,342C 625.837,342.5 611.17,342.667 596.5,342.5C 596.5,309.5 596.5,276.5 596.5,243.5 Z M 869.5,247.5 C 885.059,277.617 900.392,307.95 915.5,338.5C 886.506,339.667 857.506,339.833 828.5,339C 842.307,308.553 855.974,278.053 869.5,247.5 Z"/></g>
<g><path style="opacity:0.995" fill="#0c479c" d="M -0.5,323.5 C -0.5,312.833 -0.5,302.167 -0.5,291.5C 1.73615,274.957 6.90282,259.291 15,244.5C 64.1845,254.253 103.185,279.586 132,320.5C 164.89,368.717 179.056,422.05 174.5,480.5C 116.996,470.082 69.4959,442.748 32,398.5C 14.649,376.266 3.8157,351.266 -0.5,323.5 Z"/></g>
<g><path style="opacity:0.995" fill="#0c479c" d="M 447.5,244.5 C 460.489,268.065 465.656,293.398 463,320.5C 458.651,353.191 445.651,381.858 424,406.5C 387.287,446.321 342.12,470.988 288.5,480.5C 282.566,403.435 307.233,338.268 362.5,285C 386.988,263.423 415.321,249.923 447.5,244.5 Z"/></g>
</svg>
